<svg width="21" height="21" viewBox="0 0 21 21" fill="none" xmlns="http://www.w3.org/2000/svg">
<path d="M10.4994 1.16675C8.6534 1.16675 6.84889 1.71414 5.31403 2.7397C3.77917 3.76526 2.5829 5.22293 1.87648 6.92837C1.17006 8.63381 0.985228 10.5104 1.34536 12.3209C1.70549 14.1314 2.5944 15.7945 3.89969 17.0997C5.20498 18.405 6.86802 19.294 8.67851 19.6541C10.489 20.0142 12.3656 19.8294 14.0711 19.123C15.7765 18.4165 17.2342 17.2203 18.2597 15.6854C19.2853 14.1505 19.8327 12.346 19.8327 10.5001C19.8327 8.02473 18.8494 5.65076 17.099 3.90042C15.3487 2.15008 12.9747 1.16675 10.4994 1.16675ZM13.9294 6.41675H15.166C15.3207 6.41675 15.4691 6.47821 15.5785 6.5876C15.6879 6.697 15.7494 6.84537 15.7494 7.00008C15.7494 7.15479 15.6879 7.30316 15.5785 7.41256C15.4691 7.52196 15.3207 7.58342 15.166 7.58342H14.151V7.69425C14.1595 8.16176 14.0756 8.62634 13.9042 9.06136C13.7327 9.49638 13.4771 9.89327 13.1519 10.2293C12.8268 10.5653 12.4385 10.8338 12.0093 11.0194C11.5801 11.205 11.1186 11.3041 10.651 11.3109H9.48435L13.4627 16.0126C13.588 16.1603 13.6495 16.3518 13.6336 16.5449C13.6178 16.738 13.5259 16.9169 13.3781 17.0422C13.2304 17.1675 13.0389 17.229 12.8458 17.2131C12.6527 17.1972 12.4738 17.1053 12.3485 16.9576L7.36685 11.0484C7.27492 10.9406 7.2164 10.8083 7.19845 10.6677C7.1805 10.5272 7.2039 10.3844 7.26578 10.2569C7.32766 10.1295 7.42535 10.0228 7.5469 9.94992C7.66845 9.87707 7.80859 9.84122 7.95019 9.84675H10.6977C11.2521 9.82997 11.7773 9.59391 12.1579 9.19035C12.5385 8.7868 12.7434 8.24873 12.7277 7.69425C12.7277 7.65341 12.7277 7.61841 12.7277 7.57758H7.47769C7.32298 7.57758 7.1746 7.51612 7.06521 7.40673C6.95581 7.29733 6.89435 7.14896 6.89435 6.99425C6.89435 6.83954 6.95581 6.69117 7.06521 6.58177C7.1746 6.47237 7.32298 6.41091 7.47769 6.41091H12.331C12.1513 6.14509 11.91 5.92668 11.6276 5.77431C11.3452 5.62195 11.0302 5.54016 10.7094 5.53591H7.43685C7.24347 5.53591 7.058 5.45909 6.92126 5.32235C6.78451 5.1856 6.70769 5.00014 6.70769 4.80675C6.70769 4.61336 6.78451 4.42789 6.92126 4.29115C7.058 4.1544 7.24347 4.07758 7.43685 4.07758H15.166C15.3207 4.07758 15.4691 4.13904 15.5785 4.24844C15.6879 4.35783 15.7494 4.50621 15.7494 4.66091C15.7494 4.81562 15.6879 4.964 15.5785 5.07339C15.4691 5.18279 15.3207 5.24425 15.166 5.24425H13.2294C13.5347 5.58734 13.7722 5.98519 13.9294 6.41675Z" fill="#0095F9"/>
</svg>
