<svg width="20" height="20" viewBox="0 0 20 20" fill="none" xmlns="http://www.w3.org/2000/svg">
<rect width="20" height="20" fill="white"/>
<path d="M2.25 1C1.00736 1 0 2.00736 0 3.25V15.25C0 16.4218 0.895757 17.3844 2.03987 17.4903C2.27391 18.9139 3.51012 20 5 20C6.4865 20 7.72048 18.9189 7.95852 17.5H10.0415C10.2795 18.9189 11.5135 20 13 20C14.4865 20 15.7205 18.9189 15.9585 17.5H17.75C18.9926 17.5 20 16.4926 20 15.25V9.8373C20 9.50416 19.926 9.17518 19.7834 8.8741L18.0842 5.28681C17.7119 4.501 16.9203 4 16.0508 4H14.5V3.25C14.5 2.00736 13.4926 1 12.25 1H2.25ZM15.8293 16C15.5897 15.3222 15.1136 14.7563 14.5 14.4013V10.5L18.5 10.5V13.5001H17.25C16.8358 13.5001 16.5 13.8358 16.5 14.2501C16.5 14.6643 16.8358 15.0001 17.25 15.0001H18.5V15.25C18.5 15.6642 18.1642 16 17.75 16H15.8293ZM13 14C11.6938 14 10.5825 14.8348 10.1707 16H7.82929C7.41746 14.8348 6.30622 14 5 14C3.69527 14 2.58509 14.8329 2.17212 15.996C1.7945 15.957 1.5 15.6379 1.5 15.25V3.25C1.5 2.83579 1.83579 2.5 2.25 2.5H12.25C12.6642 2.5 13 2.83579 13 3.25V14ZM14.5 5.5H16.0508C16.3406 5.5 16.6045 5.667 16.7286 5.92894L18.1833 9L14.5 9V5.5ZM5 18.5C4.17157 18.5 3.5 17.8284 3.5 17C3.5 16.1716 4.17157 15.5 5 15.5C5.82843 15.5 6.5 16.1716 6.5 17C6.5 17.8284 5.82843 18.5 5 18.5ZM14.5 17C14.5 17.8284 13.8284 18.5 13 18.5C12.1716 18.5 11.5 17.8284 11.5 17C11.5 16.1716 12.1716 15.5 13 15.5C13.8284 15.5 14.5 16.1716 14.5 17Z" fill="#3DB220"/>
</svg>
