<svg width="20" height="20" viewBox="0 0 20 20" fill="none" xmlns="http://www.w3.org/2000/svg">
<path d="M2.99609 3.49658C2.99609 3.22044 3.21995 2.99658 3.49609 2.99658H3.93446C4.66139 2.99658 5.07878 3.46966 5.32055 3.94123C5.48622 4.26438 5.60553 4.65862 5.7041 5H15.9989C16.6624 5 17.142 5.63441 16.961 6.27278L15.4655 11.5473C15.2215 12.4078 14.4358 13.0017 13.5413 13.0017H8.46208C7.56027 13.0017 6.77001 12.3982 6.53262 11.5282L5.89021 9.17387C5.88625 9.16317 5.88263 9.15226 5.87936 9.14116L4.85002 5.64339C4.8147 5.52734 4.7822 5.41488 4.75082 5.30629C4.65097 4.96076 4.56248 4.65454 4.43068 4.39745C4.27132 4.08662 4.125 3.99658 3.93446 3.99658H3.49609C3.21995 3.99658 2.99609 3.77272 2.99609 3.49658ZM6.84374 8.86921L7.49735 11.265C7.61605 11.7 8.01118 12.0017 8.46208 12.0017H13.5413C13.9885 12.0017 14.3814 11.7048 14.5034 11.2745L15.9989 6H5.99965L6.84374 8.86921ZM9.99902 15.5C9.99902 16.3284 9.32745 17 8.49902 17C7.6706 17 6.99902 16.3284 6.99902 15.5C6.99902 14.6716 7.6706 14 8.49902 14C9.32745 14 9.99902 14.6716 9.99902 15.5ZM8.99902 15.5C8.99902 15.2239 8.77517 15 8.49902 15C8.22288 15 7.99902 15.2239 7.99902 15.5C7.99902 15.7761 8.22288 16 8.49902 16C8.77517 16 8.99902 15.7761 8.99902 15.5ZM14.999 15.5C14.999 16.3284 14.3275 17 13.499 17C12.6706 17 11.999 16.3284 11.999 15.5C11.999 14.6716 12.6706 14 13.499 14C14.3275 14 14.999 14.6716 14.999 15.5ZM13.999 15.5C13.999 15.2239 13.7752 15 13.499 15C13.2229 15 12.999 15.2239 12.999 15.5C12.999 15.7761 13.2229 16 13.499 16C13.7752 16 13.999 15.7761 13.999 15.5Z" fill="#0095F9"/>
</svg>
