<svg width="267" height="20" viewBox="0 0 267 20" fill="none" xmlns="http://www.w3.org/2000/svg">
<path d="M25.9241 16V15.538C26.2787 15.5193 26.5167 15.4353 26.6381 15.286C26.7687 15.1367 26.8387 14.936 26.8481 14.684C26.8667 14.4227 26.8761 14.1333 26.8761 13.816L26.8901 12.22L24.4541 8.37C24.2207 7.99667 24.0434 7.684 23.9221 7.432C23.8101 7.18 23.7354 6.96533 23.6981 6.788C23.5487 6.79733 23.4041 6.802 23.2641 6.802C23.1241 6.802 22.9794 6.80667 22.8301 6.816V6.2H26.4421V6.662C26.0127 6.662 25.7141 6.72733 25.5461 6.858C25.3781 6.98867 25.3127 7.17067 25.3501 7.404C25.3967 7.628 25.5134 7.88933 25.7001 8.188L26.8201 9.952C26.9041 10.0827 26.9927 10.218 27.0861 10.358C27.1794 10.498 27.2727 10.6427 27.3661 10.792C27.4687 10.932 27.5761 11.0813 27.6881 11.24H27.7161C27.8187 11.0347 27.9214 10.8387 28.0241 10.652C28.1267 10.456 28.2247 10.2693 28.3181 10.092L29.5081 7.838C29.5547 7.74467 29.6107 7.63733 29.6761 7.516C29.7507 7.38533 29.8301 7.25467 29.9141 7.124C29.9981 6.984 30.0867 6.86733 30.1801 6.774C30.0027 6.78333 29.8207 6.79267 29.6341 6.802C29.4474 6.802 29.2607 6.80667 29.0741 6.816V6.2H31.9301V6.662C31.4727 6.69 31.0947 6.84867 30.7961 7.138C30.5067 7.42733 30.1987 7.87067 29.8721 8.468C29.5547 9.06533 29.2467 9.63933 28.9481 10.19C28.6587 10.7407 28.3787 11.2773 28.1081 11.8C28.1081 11.968 28.1034 12.192 28.0941 12.472C28.0941 12.752 28.0941 13.0367 28.0941 13.326C28.0941 13.606 28.0941 13.844 28.0941 14.04C28.0941 14.236 28.0941 14.334 28.0941 14.334C28.0941 14.586 28.0894 14.8053 28.0801 14.992C28.0801 15.1693 28.0707 15.3187 28.0521 15.44C28.2481 15.4307 28.4394 15.4213 28.6261 15.412C28.8221 15.4027 29.0181 15.3933 29.2141 15.384V16H25.9241ZM34.8907 16.224C34.2374 16.224 33.6447 16.0747 33.1127 15.776C32.5807 15.468 32.1561 15.048 31.8387 14.516C31.5307 13.9747 31.3767 13.3587 31.3767 12.668C31.3767 11.9307 31.5307 11.268 31.8387 10.68C32.1467 10.092 32.5667 9.63 33.0987 9.294C33.6307 8.94867 34.2281 8.776 34.8907 8.776C35.5441 8.776 36.1367 8.93467 36.6687 9.252C37.2007 9.56 37.6254 9.98 37.9427 10.512C38.2601 11.044 38.4187 11.6507 38.4187 12.332C38.4187 13.0507 38.2601 13.7087 37.9427 14.306C37.6347 14.894 37.2147 15.3607 36.6827 15.706C36.1507 16.0513 35.5534 16.224 34.8907 16.224ZM35.0027 15.664C35.4974 15.664 35.8894 15.524 36.1787 15.244C36.4681 14.964 36.6734 14.6 36.7947 14.152C36.9254 13.704 36.9907 13.2327 36.9907 12.738C36.9907 12.318 36.9487 11.9073 36.8647 11.506C36.7901 11.0953 36.6687 10.7267 36.5007 10.4C36.3327 10.064 36.1134 9.798 35.8427 9.602C35.5814 9.406 35.2641 9.308 34.8907 9.308C34.4054 9.308 34.0087 9.448 33.7007 9.728C33.3927 10.008 33.1641 10.372 33.0147 10.82C32.8747 11.268 32.8047 11.7487 32.8047 12.262C32.8047 12.8407 32.8841 13.3913 33.0427 13.914C33.2014 14.4273 33.4441 14.8473 33.7707 15.174C34.0974 15.5007 34.5081 15.664 35.0027 15.664ZM42.5622 16.224C42.0582 16.224 41.6335 16.1307 41.2882 15.944C40.9522 15.7573 40.6955 15.44 40.5182 14.992C40.3502 14.544 40.2662 13.9373 40.2662 13.172V10.68C40.2662 10.5307 40.2662 10.3813 40.2662 10.232C40.2755 10.0827 40.2942 9.92867 40.3222 9.77C40.1635 9.77933 40.0002 9.78867 39.8322 9.798C39.6735 9.798 39.5149 9.80267 39.3562 9.812V9.238H39.7902C40.1915 9.238 40.4809 9.20067 40.6582 9.126C40.8449 9.042 40.9895 8.95333 41.0922 8.86H41.4982V13.13C41.4982 13.9327 41.6102 14.5347 41.8342 14.936C42.0675 15.328 42.4595 15.5193 43.0102 15.51C43.3649 15.5007 43.7009 15.3933 44.0182 15.188C44.3449 14.9733 44.6062 14.7213 44.8022 14.432V10.834C44.8022 10.61 44.8069 10.4187 44.8162 10.26C44.8255 10.092 44.8442 9.92867 44.8722 9.77C44.7042 9.77933 44.5362 9.78867 44.3682 9.798C44.2002 9.798 44.0322 9.80267 43.8642 9.812V9.238H44.2982C44.6995 9.238 44.9889 9.20067 45.1662 9.126C45.3529 9.042 45.4975 8.95333 45.6002 8.86H46.0062L45.9922 14.152C45.9922 14.3013 45.9875 14.5113 45.9782 14.782C45.9689 15.0527 45.9549 15.2813 45.9362 15.468C46.1042 15.4587 46.2722 15.4493 46.4402 15.44C46.6082 15.4307 46.7762 15.4213 46.9442 15.412V16H44.9422C44.9142 15.8413 44.8909 15.692 44.8722 15.552C44.8629 15.412 44.8535 15.2813 44.8442 15.16C44.5549 15.4493 44.2049 15.7013 43.7942 15.916C43.3835 16.1213 42.9729 16.224 42.5622 16.224ZM57.7252 16.042L55.8912 10.666C55.8258 10.47 55.7652 10.302 55.7092 10.162C55.6625 10.022 55.6252 9.90067 55.5972 9.798C55.5692 9.69533 55.5458 9.60667 55.5272 9.532L54.7852 9.574V9H57.7532V9.42C57.3332 9.42933 57.0998 9.574 57.0532 9.854C57.0158 10.1247 57.0718 10.484 57.2212 10.932L57.8652 12.892C57.9398 13.116 58.0145 13.3447 58.0892 13.578C58.1638 13.802 58.2385 14.026 58.3132 14.25C58.3972 13.998 58.4812 13.746 58.5652 13.494C58.6585 13.2327 58.7472 12.9713 58.8312 12.71L60.0772 9H60.6512L62.0652 13.074C62.1398 13.2793 62.2145 13.4893 62.2892 13.704C62.3638 13.9187 62.4385 14.1333 62.5132 14.348C62.5878 14.1427 62.6578 13.942 62.7232 13.746C62.7978 13.5407 62.8678 13.3353 62.9332 13.13L63.8572 10.47C63.9225 10.2833 63.9878 10.106 64.0532 9.938C64.1185 9.77 64.1932 9.63467 64.2772 9.532L63.4652 9.574V9H65.9012V9.42C65.6585 9.42933 65.4578 9.462 65.2992 9.518C65.1498 9.574 65.0238 9.64867 64.9212 9.742C64.8185 9.83533 64.7345 9.94733 64.6692 10.078C64.6038 10.2087 64.5432 10.358 64.4872 10.526L62.4712 16.042H61.9112L60.5812 12.22C60.5252 12.052 60.4692 11.8887 60.4132 11.73C60.3572 11.562 60.3012 11.3987 60.2452 11.24C60.1892 11.072 60.1332 10.9087 60.0772 10.75C60.0212 10.9087 59.9652 11.072 59.9092 11.24C59.8532 11.3987 59.7972 11.562 59.7412 11.73C59.6852 11.8887 59.6292 12.052 59.5732 12.22L58.2572 16.042H57.7252ZM66.5281 15.58C66.8174 15.58 67.0181 15.51 67.1301 15.37C67.2421 15.2207 67.3074 15.02 67.3261 14.768C67.3448 14.5067 67.3541 14.208 67.3541 13.872V10.68C67.3541 10.5307 67.3588 10.3907 67.3681 10.26C67.3774 10.12 67.3914 9.95667 67.4101 9.77C67.2421 9.77933 67.0741 9.78867 66.9061 9.798C66.7474 9.80733 66.5841 9.81667 66.4161 9.826V9.238C66.8268 9.238 67.1441 9.21933 67.3681 9.182C67.5921 9.14467 67.7601 9.098 67.8721 9.042C67.9934 8.986 68.0868 8.92533 68.1521 8.86H68.5581V14.516C68.5581 14.7027 68.5534 14.8707 68.5441 15.02C68.5441 15.16 68.5301 15.3093 68.5021 15.468C68.6514 15.4587 68.7961 15.454 68.9361 15.454C69.0854 15.4447 69.2348 15.4353 69.3841 15.426V16H66.5281V15.58ZM67.8861 7.474C67.6901 7.474 67.5174 7.39467 67.3681 7.236C67.2188 7.07733 67.1441 6.88133 67.1441 6.648C67.1441 6.41467 67.2188 6.21867 67.3681 6.06C67.5268 5.892 67.7041 5.808 67.9001 5.808C68.1148 5.808 68.2921 5.892 68.4321 6.06C68.5814 6.21867 68.6561 6.41467 68.6561 6.648C68.6561 6.88133 68.5768 7.07733 68.4181 7.236C68.2688 7.39467 68.0914 7.474 67.8861 7.474ZM70.3256 15.58C70.6149 15.58 70.8156 15.51 70.9276 15.37C71.0396 15.2207 71.1049 15.02 71.1236 14.768C71.1423 14.5067 71.1516 14.208 71.1516 13.872V7.25C71.1516 7.10067 71.1516 6.96067 71.1516 6.83C71.1609 6.69 71.1749 6.52667 71.1936 6.34C71.0256 6.34933 70.8576 6.35867 70.6896 6.368C70.5309 6.37733 70.3676 6.38667 70.1996 6.396V5.808C70.6103 5.808 70.9276 5.78933 71.1516 5.752C71.3849 5.71467 71.5576 5.668 71.6696 5.612C71.7909 5.556 71.8843 5.49533 71.9496 5.43H72.3556L72.3696 14.516C72.3696 14.7027 72.3649 14.8707 72.3556 15.02C72.3463 15.16 72.3276 15.3093 72.2996 15.468C72.4489 15.4587 72.5936 15.454 72.7336 15.454C72.8829 15.4447 73.0323 15.4353 73.1816 15.426V16H70.3256V15.58ZM74.1401 15.58C74.4294 15.58 74.6301 15.51 74.7421 15.37C74.8541 15.2207 74.9194 15.02 74.9381 14.768C74.9567 14.5067 74.9661 14.208 74.9661 13.872V7.25C74.9661 7.10067 74.9661 6.96067 74.9661 6.83C74.9754 6.69 74.9894 6.52667 75.0081 6.34C74.8401 6.34933 74.6721 6.35867 74.5041 6.368C74.3454 6.37733 74.1821 6.38667 74.0141 6.396V5.808C74.4247 5.808 74.7421 5.78933 74.9661 5.752C75.1994 5.71467 75.3721 5.668 75.4841 5.612C75.6054 5.556 75.6987 5.49533 75.7641 5.43H76.1701L76.1841 14.516C76.1841 14.7027 76.1794 14.8707 76.1701 15.02C76.1607 15.16 76.1421 15.3093 76.1141 15.468C76.2634 15.4587 76.4081 15.454 76.5481 15.454C76.6974 15.4447 76.8467 15.4353 76.9961 15.426V16H74.1401V15.58ZM82.2203 7.25C82.2203 7.10067 82.2203 6.96067 82.2203 6.83C82.2296 6.69 82.2436 6.52667 82.2623 6.34C82.0943 6.34933 81.9263 6.35867 81.7583 6.368C81.5996 6.37733 81.4363 6.38667 81.2683 6.396V5.808C81.6789 5.808 81.9963 5.78933 82.2203 5.752C82.4536 5.71467 82.6263 5.668 82.7383 5.612C82.8596 5.556 82.9529 5.49533 83.0183 5.43H83.4243V9.602C83.6856 9.34067 83.9936 9.14 84.3483 9C84.7123 8.85067 85.1089 8.776 85.5383 8.776C86.1356 8.776 86.6723 8.92067 87.1483 9.21C87.6336 9.49933 88.0163 9.91 88.2963 10.442C88.5763 10.974 88.7163 11.604 88.7163 12.332C88.7163 13.1253 88.5436 13.816 88.1983 14.404C87.8529 14.9827 87.4049 15.4307 86.8543 15.748C86.3036 16.0653 85.7109 16.224 85.0763 16.224C84.7589 16.224 84.4089 16.1633 84.0263 16.042C83.6529 15.93 83.3169 15.706 83.0183 15.37L82.6823 16H82.1923L82.2203 7.25ZM83.4243 13.802C83.4243 14.2967 83.5036 14.6793 83.6623 14.95C83.8209 15.2113 84.0263 15.3933 84.2783 15.496C84.5303 15.5987 84.7963 15.65 85.0763 15.65C85.5243 15.65 85.9116 15.524 86.2383 15.272C86.5649 15.02 86.8169 14.6747 86.9943 14.236C87.1809 13.788 87.2743 13.27 87.2743 12.682C87.2743 12.0473 87.1949 11.492 87.0363 11.016C86.8776 10.5307 86.6396 10.1527 86.3223 9.882C86.0049 9.602 85.6036 9.462 85.1183 9.462C84.8103 9.462 84.5023 9.53667 84.1943 9.686C83.8956 9.826 83.6389 10.0173 83.4243 10.26V13.802ZM93.3087 16.224C92.6647 16.224 92.0814 16.0747 91.5587 15.776C91.0454 15.468 90.6394 15.0387 90.3407 14.488C90.042 13.928 89.8927 13.27 89.8927 12.514C89.8927 11.8607 90.0374 11.2493 90.3267 10.68C90.6254 10.1107 91.0407 9.65333 91.5727 9.308C92.1047 8.95333 92.7207 8.776 93.4207 8.776C93.8127 8.776 94.1767 8.84133 94.5127 8.972C94.858 9.09333 95.1614 9.28467 95.4227 9.546C95.684 9.798 95.8894 10.12 96.0387 10.512C96.188 10.8947 96.2627 11.3473 96.2627 11.87L91.3347 11.954C91.3347 12.6633 91.4094 13.2887 91.5587 13.83C91.7174 14.362 91.9694 14.7773 92.3147 15.076C92.66 15.3653 93.1034 15.51 93.6447 15.51C93.934 15.51 94.228 15.4587 94.5267 15.356C94.8347 15.2533 95.1194 15.1133 95.3807 14.936C95.642 14.7587 95.852 14.5627 96.0107 14.348L96.3467 14.628C96.0947 15.02 95.7914 15.3327 95.4367 15.566C95.082 15.7993 94.718 15.9673 94.3447 16.07C93.9714 16.1727 93.626 16.224 93.3087 16.224ZM91.3767 11.366H94.9467C94.9467 11.03 94.8954 10.708 94.7927 10.4C94.6994 10.0827 94.5407 9.826 94.3167 9.63C94.0927 9.42467 93.7987 9.322 93.4347 9.322C92.8934 9.322 92.4407 9.48533 92.0767 9.812C91.722 10.1293 91.4887 10.6473 91.3767 11.366ZM106.842 9.168C106.814 8.72 106.707 8.29533 106.52 7.894C106.334 7.49267 106.063 7.166 105.708 6.914C105.354 6.662 104.901 6.536 104.35 6.536C103.772 6.536 103.328 6.69933 103.02 7.026C102.712 7.35267 102.558 7.73533 102.558 8.174C102.558 8.566 102.67 8.89733 102.894 9.168C103.118 9.42933 103.408 9.66267 103.762 9.868C104.126 10.064 104.509 10.2553 104.91 10.442C105.265 10.6007 105.62 10.7733 105.974 10.96C106.329 11.1373 106.651 11.3427 106.94 11.576C107.23 11.8093 107.458 12.0893 107.626 12.416C107.804 12.7333 107.892 13.116 107.892 13.564C107.892 14.0773 107.762 14.5347 107.5 14.936C107.248 15.3373 106.88 15.6547 106.394 15.888C105.909 16.112 105.316 16.224 104.616 16.224C104.196 16.224 103.762 16.1633 103.314 16.042C102.866 15.9207 102.47 15.7433 102.124 15.51L102.194 16.112H101.466L101.382 13.13H101.928C101.975 13.9513 102.26 14.5767 102.782 15.006C103.305 15.426 103.935 15.636 104.672 15.636C105.036 15.636 105.372 15.5707 105.68 15.44C105.988 15.3 106.231 15.0993 106.408 14.838C106.595 14.5767 106.688 14.2593 106.688 13.886C106.688 13.466 106.576 13.116 106.352 12.836C106.128 12.556 105.839 12.3133 105.484 12.108C105.13 11.9027 104.752 11.7067 104.35 11.52C103.996 11.3613 103.646 11.1933 103.3 11.016C102.955 10.8387 102.638 10.638 102.348 10.414C102.068 10.1807 101.84 9.90533 101.662 9.588C101.494 9.27067 101.41 8.888 101.41 8.44C101.41 8.19733 101.452 7.936 101.536 7.656C101.62 7.376 101.765 7.11 101.97 6.858C102.185 6.59667 102.474 6.38667 102.838 6.228C103.212 6.06 103.683 5.976 104.252 5.976C104.607 5.976 105.004 6.02733 105.442 6.13C105.89 6.22333 106.306 6.41 106.688 6.69L106.632 6.088H107.346V9.168H106.842ZM113.386 16C113.358 15.8413 113.339 15.7013 113.33 15.58C113.32 15.4587 113.306 15.3327 113.288 15.202C112.97 15.5193 112.625 15.7713 112.252 15.958C111.888 16.1353 111.5 16.224 111.09 16.224C110.38 16.224 109.853 16.0653 109.508 15.748C109.162 15.4213 108.99 15.0247 108.99 14.558C108.99 14.1287 109.12 13.76 109.382 13.452C109.652 13.1347 109.998 12.878 110.418 12.682C110.847 12.4767 111.309 12.3273 111.804 12.234C112.308 12.1313 112.793 12.0847 113.26 12.094V11.226C113.26 10.8993 113.232 10.5913 113.176 10.302C113.12 10.0127 112.998 9.77467 112.812 9.588C112.625 9.40133 112.326 9.30333 111.916 9.294C111.645 9.28467 111.365 9.336 111.076 9.448C110.796 9.56 110.59 9.75133 110.46 10.022C110.534 10.0967 110.581 10.1853 110.6 10.288C110.628 10.3813 110.642 10.47 110.642 10.554C110.642 10.666 110.595 10.7967 110.502 10.946C110.408 11.086 110.245 11.1513 110.012 11.142C109.816 11.142 109.666 11.0767 109.564 10.946C109.461 10.806 109.41 10.6427 109.41 10.456C109.41 10.1387 109.526 9.854 109.76 9.602C110.002 9.35 110.334 9.14933 110.754 9C111.174 8.85067 111.65 8.776 112.182 8.776C112.966 8.776 113.544 8.986 113.918 9.406C114.291 9.81667 114.473 10.47 114.464 11.366C114.464 11.7113 114.464 12.0613 114.464 12.416C114.464 12.7613 114.459 13.1113 114.45 13.466C114.45 13.8113 114.45 14.1613 114.45 14.516C114.45 14.6653 114.445 14.8147 114.436 14.964C114.426 15.1133 114.412 15.2813 114.394 15.468C114.562 15.4587 114.725 15.4493 114.884 15.44C115.052 15.4307 115.22 15.4213 115.388 15.412V16H113.386ZM113.26 12.57C112.942 12.5793 112.606 12.6213 112.252 12.696C111.906 12.7613 111.584 12.864 111.286 13.004C110.996 13.144 110.758 13.3307 110.572 13.564C110.394 13.788 110.31 14.0633 110.32 14.39C110.338 14.7353 110.45 14.9967 110.656 15.174C110.87 15.342 111.122 15.426 111.412 15.426C111.794 15.426 112.126 15.356 112.406 15.216C112.695 15.0667 112.98 14.8613 113.26 14.6C113.25 14.4973 113.246 14.3853 113.246 14.264C113.246 14.1427 113.246 14.0167 113.246 13.886C113.246 13.8393 113.246 13.69 113.246 13.438C113.255 13.186 113.26 12.8967 113.26 12.57ZM118.844 16.042L116.842 11.478C116.693 11.1233 116.576 10.82 116.492 10.568C116.408 10.316 116.348 10.106 116.31 9.938C116.282 9.77 116.264 9.63467 116.254 9.532L115.652 9.574V9H118.228V9.42C117.948 9.42 117.766 9.49467 117.682 9.644C117.608 9.784 117.598 9.97533 117.654 10.218C117.71 10.4513 117.794 10.7033 117.906 10.974L118.984 13.438C119.059 13.5967 119.129 13.7647 119.194 13.942C119.269 14.11 119.339 14.2873 119.404 14.474H119.418C119.465 14.334 119.516 14.1847 119.572 14.026C119.638 13.8673 119.694 13.7133 119.74 13.564L120.86 10.498C120.935 10.274 121.014 10.078 121.098 9.91C121.182 9.742 121.243 9.616 121.28 9.532L120.384 9.574V9H122.596V9.42C122.391 9.42 122.218 9.49 122.078 9.63C121.938 9.77 121.803 9.98 121.672 10.26C121.551 10.54 121.406 10.89 121.238 11.31L119.404 16.042H118.844ZM126.572 16.224C125.928 16.224 125.345 16.0747 124.822 15.776C124.309 15.468 123.903 15.0387 123.604 14.488C123.306 13.928 123.156 13.27 123.156 12.514C123.156 11.8607 123.301 11.2493 123.59 10.68C123.889 10.1107 124.304 9.65333 124.836 9.308C125.368 8.95333 125.984 8.776 126.684 8.776C127.076 8.776 127.44 8.84133 127.776 8.972C128.122 9.09333 128.425 9.28467 128.686 9.546C128.948 9.798 129.153 10.12 129.302 10.512C129.452 10.8947 129.526 11.3473 129.526 11.87L124.598 11.954C124.598 12.6633 124.673 13.2887 124.822 13.83C124.981 14.362 125.233 14.7773 125.578 15.076C125.924 15.3653 126.367 15.51 126.908 15.51C127.198 15.51 127.492 15.4587 127.79 15.356C128.098 15.2533 128.383 15.1133 128.644 14.936C128.906 14.7587 129.116 14.5627 129.274 14.348L129.61 14.628C129.358 15.02 129.055 15.3327 128.7 15.566C128.346 15.7993 127.982 15.9673 127.608 16.07C127.235 16.1727 126.89 16.224 126.572 16.224ZM124.64 11.366H128.21C128.21 11.03 128.159 10.708 128.056 10.4C127.963 10.0827 127.804 9.826 127.58 9.63C127.356 9.42467 127.062 9.322 126.698 9.322C126.157 9.322 125.704 9.48533 125.34 9.812C124.986 10.1293 124.752 10.6473 124.64 11.366ZM137.264 18.142L137.25 16.224C136.933 16.2053 136.597 16.14 136.242 16.028C135.887 15.916 135.579 15.7807 135.318 15.622L135.388 16.182H134.632V13.228H135.122C135.169 14.0867 135.421 14.712 135.878 15.104C136.345 15.4867 136.947 15.678 137.684 15.678C138.235 15.678 138.683 15.5147 139.028 15.188C139.373 14.8613 139.546 14.4413 139.546 13.928C139.546 13.508 139.429 13.158 139.196 12.878C138.972 12.5887 138.678 12.332 138.314 12.108C137.95 11.884 137.563 11.6693 137.152 11.464C136.723 11.24 136.307 10.9973 135.906 10.736C135.505 10.4747 135.173 10.162 134.912 9.798C134.66 9.42467 134.534 8.96267 134.534 8.412C134.534 8.188 134.581 7.94067 134.674 7.67C134.767 7.39933 134.917 7.138 135.122 6.886C135.327 6.62467 135.598 6.41 135.934 6.242C136.279 6.074 136.695 5.98533 137.18 5.976V4.338H137.936L137.922 5.976C138.193 6.004 138.454 6.06467 138.706 6.158C138.967 6.242 139.224 6.37733 139.476 6.564L139.42 5.976H140.12V9.028H139.602C139.574 8.58 139.49 8.16467 139.35 7.782C139.21 7.39933 138.981 7.09133 138.664 6.858C138.356 6.62467 137.927 6.508 137.376 6.508C136.984 6.508 136.662 6.58733 136.41 6.746C136.158 6.90467 135.971 7.11 135.85 7.362C135.729 7.614 135.668 7.88 135.668 8.16C135.668 8.51467 135.766 8.82267 135.962 9.084C136.158 9.34533 136.415 9.57867 136.732 9.784C137.049 9.98933 137.39 10.19 137.754 10.386C138.109 10.5727 138.459 10.764 138.804 10.96C139.149 11.156 139.467 11.3753 139.756 11.618C140.055 11.8607 140.288 12.1453 140.456 12.472C140.633 12.7987 140.722 13.1813 140.722 13.62C140.722 14.0493 140.619 14.4553 140.414 14.838C140.218 15.2207 139.919 15.538 139.518 15.79C139.117 16.0327 138.608 16.1773 137.992 16.224V18.142H137.264ZM144.814 16.224C144.142 16.224 143.587 16.126 143.148 15.93C142.709 15.7247 142.383 15.4727 142.168 15.174C141.963 14.8753 141.86 14.5907 141.86 14.32C141.86 14.1053 141.916 13.928 142.028 13.788C142.14 13.6387 142.299 13.5593 142.504 13.55C142.672 13.5407 142.803 13.5733 142.896 13.648C142.999 13.7133 143.069 13.7973 143.106 13.9C143.143 14.0027 143.162 14.096 143.162 14.18C143.162 14.2733 143.148 14.3667 143.12 14.46C143.092 14.5533 143.055 14.6467 143.008 14.74C143.101 15.0573 143.311 15.286 143.638 15.426C143.974 15.566 144.333 15.636 144.716 15.636C145.379 15.636 145.906 15.454 146.298 15.09C146.699 14.726 146.9 14.1987 146.9 13.508C146.9 13.0973 146.835 12.71 146.704 12.346C146.573 11.9727 146.331 11.6693 145.976 11.436C145.621 11.2027 145.103 11.0953 144.422 11.114C144.347 11.114 144.268 11.1187 144.184 11.128C144.1 11.128 144.007 11.1327 143.904 11.142V10.512C144.007 10.512 144.105 10.512 144.198 10.512C144.291 10.512 144.385 10.512 144.478 10.512C144.973 10.512 145.36 10.4 145.64 10.176C145.92 9.952 146.121 9.686 146.242 9.378C146.363 9.07 146.424 8.78533 146.424 8.524C146.424 8.14133 146.373 7.80067 146.27 7.502C146.177 7.194 146.009 6.956 145.766 6.788C145.523 6.61067 145.187 6.522 144.758 6.522C144.338 6.522 143.979 6.634 143.68 6.858C143.381 7.07267 143.195 7.29667 143.12 7.53C143.204 7.62333 143.26 7.71667 143.288 7.81C143.325 7.90333 143.344 8.00133 143.344 8.104C143.344 8.17867 143.321 8.26733 143.274 8.37C143.237 8.46333 143.171 8.54267 143.078 8.608C142.985 8.67333 142.859 8.706 142.7 8.706C142.504 8.706 142.355 8.636 142.252 8.496C142.149 8.356 142.098 8.188 142.098 7.992C142.098 7.73067 142.201 7.446 142.406 7.138C142.611 6.82067 142.924 6.55 143.344 6.326C143.773 6.09267 144.31 5.976 144.954 5.976C145.458 5.976 145.925 6.05533 146.354 6.214C146.783 6.37267 147.129 6.634 147.39 6.998C147.651 7.35267 147.782 7.824 147.782 8.412C147.782 8.70133 147.707 8.99533 147.558 9.294C147.418 9.58333 147.18 9.854 146.844 10.106C146.517 10.358 146.065 10.5727 145.486 10.75C146.373 10.8433 147.068 11.128 147.572 11.604C148.085 12.08 148.342 12.682 148.342 13.41C148.342 14.0447 148.174 14.572 147.838 14.992C147.511 15.4027 147.077 15.7107 146.536 15.916C146.004 16.1213 145.43 16.224 144.814 16.224ZM153.391 16.224C152.682 16.224 152.094 16.0747 151.627 15.776C151.16 15.468 150.796 15.0667 150.535 14.572C150.274 14.068 150.087 13.5173 149.975 12.92C149.872 12.3227 149.821 11.73 149.821 11.142C149.821 10.554 149.886 9.95667 150.017 9.35C150.157 8.74333 150.372 8.188 150.661 7.684C150.95 7.17067 151.324 6.76 151.781 6.452C152.238 6.13467 152.794 5.976 153.447 5.976C154.128 5.976 154.693 6.13 155.141 6.438C155.598 6.746 155.958 7.152 156.219 7.656C156.49 8.15067 156.681 8.69667 156.793 9.294C156.905 9.89133 156.961 10.484 156.961 11.072C156.961 11.6507 156.896 12.2433 156.765 12.85C156.634 13.4567 156.429 14.0167 156.149 14.53C155.869 15.034 155.5 15.4447 155.043 15.762C154.595 16.07 154.044 16.224 153.391 16.224ZM153.475 15.678C153.876 15.678 154.208 15.552 154.469 15.3C154.73 15.048 154.936 14.712 155.085 14.292C155.244 13.872 155.356 13.41 155.421 12.906C155.486 12.3927 155.519 11.8793 155.519 11.366C155.519 10.7967 155.486 10.2273 155.421 9.658C155.356 9.08867 155.244 8.566 155.085 8.09C154.926 7.614 154.712 7.23133 154.441 6.942C154.17 6.65267 153.83 6.508 153.419 6.508C153.018 6.508 152.677 6.634 152.397 6.886C152.126 7.138 151.907 7.474 151.739 7.894C151.571 8.314 151.45 8.78067 151.375 9.294C151.3 9.80733 151.263 10.3253 151.263 10.848C151.263 11.24 151.282 11.6553 151.319 12.094C151.356 12.5327 151.422 12.9667 151.515 13.396C151.618 13.816 151.753 14.1987 151.921 14.544C152.089 14.8893 152.299 15.1647 152.551 15.37C152.803 15.5753 153.111 15.678 153.475 15.678ZM162.086 16.224C161.377 16.224 160.789 16.0747 160.322 15.776C159.856 15.468 159.492 15.0667 159.23 14.572C158.969 14.068 158.782 13.5173 158.67 12.92C158.568 12.3227 158.516 11.73 158.516 11.142C158.516 10.554 158.582 9.95667 158.712 9.35C158.852 8.74333 159.067 8.188 159.356 7.684C159.646 7.17067 160.019 6.76 160.476 6.452C160.934 6.13467 161.489 5.976 162.142 5.976C162.824 5.976 163.388 6.13 163.836 6.438C164.294 6.746 164.653 7.152 164.914 7.656C165.185 8.15067 165.376 8.69667 165.488 9.294C165.6 9.89133 165.656 10.484 165.656 11.072C165.656 11.6507 165.591 12.2433 165.46 12.85C165.33 13.4567 165.124 14.0167 164.844 14.53C164.564 15.034 164.196 15.4447 163.738 15.762C163.29 16.07 162.74 16.224 162.086 16.224ZM162.17 15.678C162.572 15.678 162.903 15.552 163.164 15.3C163.426 15.048 163.631 14.712 163.78 14.292C163.939 13.872 164.051 13.41 164.116 12.906C164.182 12.3927 164.214 11.8793 164.214 11.366C164.214 10.7967 164.182 10.2273 164.116 9.658C164.051 9.08867 163.939 8.566 163.78 8.09C163.622 7.614 163.407 7.23133 163.136 6.942C162.866 6.65267 162.525 6.508 162.114 6.508C161.713 6.508 161.372 6.634 161.092 6.886C160.822 7.138 160.602 7.474 160.434 7.894C160.266 8.314 160.145 8.78067 160.07 9.294C159.996 9.80733 159.958 10.3253 159.958 10.848C159.958 11.24 159.977 11.6553 160.014 12.094C160.052 12.5327 160.117 12.9667 160.21 13.396C160.313 13.816 160.448 14.1987 160.616 14.544C160.784 14.8893 160.994 15.1647 161.246 15.37C161.498 15.5753 161.806 15.678 162.17 15.678ZM170.782 16.224C170.072 16.224 169.484 16.0747 169.018 15.776C168.551 15.468 168.187 15.0667 167.926 14.572C167.664 14.068 167.478 13.5173 167.366 12.92C167.263 12.3227 167.212 11.73 167.212 11.142C167.212 10.554 167.277 9.95667 167.408 9.35C167.548 8.74333 167.762 8.188 168.052 7.684C168.341 7.17067 168.714 6.76 169.172 6.452C169.629 6.13467 170.184 5.976 170.838 5.976C171.519 5.976 172.084 6.13 172.532 6.438C172.989 6.746 173.348 7.152 173.61 7.656C173.88 8.15067 174.072 8.69667 174.184 9.294C174.296 9.89133 174.352 10.484 174.352 11.072C174.352 11.6507 174.286 12.2433 174.156 12.85C174.025 13.4567 173.82 14.0167 173.54 14.53C173.26 15.034 172.891 15.4447 172.434 15.762C171.986 16.07 171.435 16.224 170.782 16.224ZM170.866 15.678C171.267 15.678 171.598 15.552 171.86 15.3C172.121 15.048 172.326 14.712 172.476 14.292C172.634 13.872 172.746 13.41 172.812 12.906C172.877 12.3927 172.91 11.8793 172.91 11.366C172.91 10.7967 172.877 10.2273 172.812 9.658C172.746 9.08867 172.634 8.566 172.476 8.09C172.317 7.614 172.102 7.23133 171.832 6.942C171.561 6.65267 171.22 6.508 170.81 6.508C170.408 6.508 170.068 6.634 169.788 6.886C169.517 7.138 169.298 7.474 169.13 7.894C168.962 8.314 168.84 8.78067 168.766 9.294C168.691 9.80733 168.654 10.3253 168.654 10.848C168.654 11.24 168.672 11.6553 168.71 12.094C168.747 12.5327 168.812 12.9667 168.906 13.396C169.008 13.816 169.144 14.1987 169.312 14.544C169.48 14.8893 169.69 15.1647 169.942 15.37C170.194 15.5753 170.502 15.678 170.866 15.678ZM184.429 16.224C183.542 16.224 182.781 16.0747 182.147 15.776C181.512 15.4773 180.994 15.0807 180.593 14.586C180.201 14.082 179.911 13.5267 179.725 12.92C179.538 12.3133 179.445 11.7067 179.445 11.1C179.445 10.512 179.543 9.91933 179.739 9.322C179.935 8.71533 180.233 8.16 180.635 7.656C181.045 7.152 181.554 6.746 182.161 6.438C182.777 6.13 183.495 5.976 184.317 5.976C185.175 5.976 185.917 6.13 186.543 6.438C187.168 6.746 187.681 7.15667 188.083 7.67C188.493 8.174 188.797 8.72467 188.993 9.322C189.198 9.91933 189.301 10.512 189.301 11.1C189.301 11.6787 189.203 12.2713 189.007 12.878C188.811 13.4753 188.507 14.0307 188.097 14.544C187.695 15.048 187.191 15.454 186.585 15.762C185.978 16.07 185.259 16.224 184.429 16.224ZM184.457 15.65C185.035 15.65 185.539 15.5287 185.969 15.286C186.398 15.034 186.753 14.7027 187.033 14.292C187.322 13.872 187.537 13.41 187.677 12.906C187.826 12.3927 187.901 11.8793 187.901 11.366C187.901 10.7873 187.821 10.2133 187.663 9.644C187.504 9.07467 187.271 8.55667 186.963 8.09C186.655 7.62333 186.272 7.25 185.815 6.97C185.367 6.68067 184.853 6.536 184.275 6.536C183.696 6.536 183.187 6.662 182.749 6.914C182.319 7.166 181.96 7.502 181.671 7.922C181.391 8.33267 181.176 8.79467 181.027 9.308C180.887 9.812 180.817 10.3253 180.817 10.848C180.817 11.3613 180.887 11.898 181.027 12.458C181.176 13.018 181.4 13.5407 181.699 14.026C181.997 14.5113 182.375 14.9033 182.833 15.202C183.29 15.5007 183.831 15.65 184.457 15.65ZM190.532 16V15.58C190.821 15.58 191.022 15.51 191.134 15.37C191.246 15.2207 191.311 15.02 191.33 14.768C191.349 14.5067 191.358 14.208 191.358 13.872L191.372 10.68C191.372 10.5307 191.372 10.3813 191.372 10.232C191.381 10.0827 191.4 9.92867 191.428 9.77C191.26 9.77933 191.092 9.78867 190.924 9.798C190.765 9.80733 190.602 9.81667 190.434 9.826V9.238C190.845 9.238 191.153 9.21933 191.358 9.182C191.573 9.14467 191.731 9.098 191.834 9.042C191.937 8.986 192.021 8.92533 192.086 8.86H192.492C192.501 8.92533 192.506 9 192.506 9.084C192.515 9.168 192.525 9.26133 192.534 9.364C192.543 9.46667 192.548 9.58333 192.548 9.714C192.753 9.53667 192.977 9.378 193.22 9.238C193.472 9.098 193.733 8.986 194.004 8.902C194.284 8.818 194.559 8.776 194.83 8.776C195.642 8.776 196.235 9.03267 196.608 9.546C196.981 10.05 197.168 10.8387 197.168 11.912V14.516C197.168 14.7027 197.163 14.8707 197.154 15.02C197.154 15.16 197.14 15.3093 197.112 15.468C197.261 15.4587 197.406 15.454 197.546 15.454C197.695 15.4447 197.845 15.4353 197.994 15.426V16H195.138V15.58C195.427 15.58 195.628 15.51 195.74 15.37C195.852 15.2207 195.917 15.02 195.936 14.768C195.955 14.5067 195.964 14.208 195.964 13.872V11.912C195.955 11.1093 195.819 10.5027 195.558 10.092C195.306 9.68133 194.905 9.48067 194.354 9.49C194.018 9.49933 193.687 9.588 193.36 9.756C193.043 9.924 192.777 10.1387 192.562 10.4C192.571 10.4747 192.576 10.5587 192.576 10.652C192.576 10.7453 192.576 10.8433 192.576 10.946L192.562 14.516C192.562 14.7027 192.557 14.8707 192.548 15.02C192.548 15.16 192.534 15.3093 192.506 15.468C192.655 15.4587 192.8 15.454 192.94 15.454C193.089 15.4447 193.239 15.4353 193.388 15.426V16H190.532ZM205.346 16.224C205.131 16.224 204.912 16.1913 204.688 16.126C204.464 16.07 204.254 15.9533 204.058 15.776C203.871 15.5987 203.722 15.342 203.61 15.006C203.498 14.6607 203.442 14.208 203.442 13.648L203.47 9.588L202.392 9.602V9C202.634 8.99067 202.882 8.902 203.134 8.734C203.386 8.55667 203.61 8.31867 203.806 8.02C204.011 7.72133 204.151 7.39467 204.226 7.04H204.702V9H207.054V9.546L204.702 9.574L204.674 13.466C204.674 13.886 204.706 14.2453 204.772 14.544C204.846 14.8333 204.963 15.0527 205.122 15.202C205.28 15.3513 205.486 15.426 205.738 15.426C205.999 15.426 206.242 15.3513 206.466 15.202C206.699 15.0527 206.904 14.8473 207.082 14.586L207.46 14.894C207.254 15.202 207.049 15.4447 206.844 15.622C206.648 15.7993 206.456 15.93 206.27 16.014C206.083 16.1073 205.91 16.1633 205.752 16.182C205.593 16.21 205.458 16.224 205.346 16.224ZM212.622 15.58C212.911 15.58 213.112 15.51 213.224 15.37C213.336 15.2207 213.401 15.02 213.42 14.768C213.438 14.5067 213.448 14.208 213.448 13.872V11.912C213.448 11.1093 213.317 10.5073 213.056 10.106C212.804 9.70467 212.402 9.50867 211.852 9.518C211.506 9.52733 211.166 9.61133 210.83 9.77C210.503 9.92867 210.237 10.134 210.032 10.386V14.516C210.032 14.7027 210.027 14.8707 210.018 15.02C210.008 15.16 209.99 15.3093 209.962 15.468C210.111 15.4587 210.256 15.454 210.396 15.454C210.545 15.4447 210.694 15.4353 210.844 15.426V16H207.988V15.58C208.277 15.58 208.478 15.51 208.59 15.37C208.702 15.2207 208.767 15.02 208.786 14.768C208.814 14.5067 208.828 14.208 208.828 13.872V7.25C208.828 7.10067 208.828 6.96067 208.828 6.83C208.837 6.69 208.851 6.52667 208.87 6.34C208.702 6.34933 208.534 6.35867 208.366 6.368C208.207 6.37733 208.044 6.38667 207.876 6.396V5.808C208.286 5.808 208.604 5.78933 208.828 5.752C209.061 5.71467 209.234 5.668 209.346 5.612C209.467 5.556 209.56 5.49533 209.626 5.43H210.032V9.7C210.237 9.52267 210.466 9.36867 210.718 9.238C210.979 9.098 211.245 8.986 211.516 8.902C211.796 8.818 212.066 8.776 212.328 8.776C213.14 8.776 213.723 9.03267 214.078 9.546C214.442 10.05 214.628 10.8387 214.638 11.912L214.652 14.516C214.652 14.7027 214.647 14.8707 214.638 15.02C214.638 15.16 214.624 15.3093 214.596 15.468C214.745 15.4587 214.89 15.454 215.03 15.454C215.179 15.4447 215.328 15.4353 215.478 15.426V16H212.622V15.58ZM216.509 15.58C216.798 15.58 216.999 15.51 217.111 15.37C217.223 15.2207 217.288 15.02 217.307 14.768C217.325 14.5067 217.335 14.208 217.335 13.872V10.68C217.335 10.5307 217.339 10.3907 217.349 10.26C217.358 10.12 217.372 9.95667 217.391 9.77C217.223 9.77933 217.055 9.78867 216.887 9.798C216.728 9.80733 216.565 9.81667 216.397 9.826V9.238C216.807 9.238 217.125 9.21933 217.349 9.182C217.573 9.14467 217.741 9.098 217.853 9.042C217.974 8.986 218.067 8.92533 218.133 8.86H218.539V14.516C218.539 14.7027 218.534 14.8707 218.525 15.02C218.525 15.16 218.511 15.3093 218.483 15.468C218.632 15.4587 218.777 15.454 218.917 15.454C219.066 15.4447 219.215 15.4353 219.365 15.426V16H216.509V15.58ZM217.867 7.474C217.671 7.474 217.498 7.39467 217.349 7.236C217.199 7.07733 217.125 6.88133 217.125 6.648C217.125 6.41467 217.199 6.21867 217.349 6.06C217.507 5.892 217.685 5.808 217.881 5.808C218.095 5.808 218.273 5.892 218.413 6.06C218.562 6.21867 218.637 6.41467 218.637 6.648C218.637 6.88133 218.557 7.07733 218.399 7.236C218.249 7.39467 218.072 7.474 217.867 7.474ZM223.316 16.224C222.849 16.224 222.434 16.1587 222.07 16.028C221.706 15.9067 221.407 15.7667 221.174 15.608L221.23 16.098H220.642L220.558 13.69H220.992C221.011 14.0727 221.118 14.418 221.314 14.726C221.51 15.0247 221.762 15.258 222.07 15.426C222.378 15.594 222.709 15.678 223.064 15.678C223.307 15.678 223.545 15.6407 223.778 15.566C224.011 15.482 224.207 15.3607 224.366 15.202C224.525 15.034 224.604 14.824 224.604 14.572C224.604 14.3107 224.525 14.096 224.366 13.928C224.217 13.7507 224.016 13.5967 223.764 13.466C223.512 13.3353 223.241 13.214 222.952 13.102C222.672 12.99 222.392 12.8733 222.112 12.752C221.832 12.6307 221.571 12.486 221.328 12.318C221.095 12.15 220.908 11.9447 220.768 11.702C220.628 11.4593 220.558 11.1607 220.558 10.806C220.558 10.61 220.595 10.3953 220.67 10.162C220.745 9.92867 220.871 9.70933 221.048 9.504C221.225 9.28933 221.468 9.11667 221.776 8.986C222.084 8.846 222.476 8.776 222.952 8.776C223.204 8.776 223.484 8.818 223.792 8.902C224.1 8.986 224.399 9.14467 224.688 9.378L224.66 8.846H225.248V11.296H224.8C224.781 10.9693 224.707 10.6567 224.576 10.358C224.445 10.05 224.254 9.798 224.002 9.602C223.75 9.39667 223.423 9.294 223.022 9.294C222.593 9.294 222.257 9.40133 222.014 9.616C221.771 9.83067 221.65 10.078 221.65 10.358C221.65 10.6473 221.739 10.89 221.916 11.086C222.103 11.2727 222.341 11.436 222.63 11.576C222.919 11.716 223.227 11.8513 223.554 11.982C223.909 12.1313 224.254 12.2947 224.59 12.472C224.926 12.6493 225.201 12.8733 225.416 13.144C225.631 13.4053 225.738 13.746 225.738 14.166C225.738 14.6327 225.617 15.02 225.374 15.328C225.141 15.636 224.837 15.86 224.464 16C224.1 16.1493 223.717 16.224 223.316 16.224ZM234.076 16.224C233.423 16.224 232.83 16.0747 232.298 15.776C231.766 15.468 231.342 15.048 231.024 14.516C230.716 13.9747 230.562 13.3587 230.562 12.668C230.562 11.9307 230.716 11.268 231.024 10.68C231.332 10.092 231.752 9.63 232.284 9.294C232.816 8.94867 233.414 8.776 234.076 8.776C234.73 8.776 235.322 8.93467 235.854 9.252C236.386 9.56 236.811 9.98 237.128 10.512C237.446 11.044 237.604 11.6507 237.604 12.332C237.604 13.0507 237.446 13.7087 237.128 14.306C236.82 14.894 236.4 15.3607 235.868 15.706C235.336 16.0513 234.739 16.224 234.076 16.224ZM234.188 15.664C234.683 15.664 235.075 15.524 235.364 15.244C235.654 14.964 235.859 14.6 235.98 14.152C236.111 13.704 236.176 13.2327 236.176 12.738C236.176 12.318 236.134 11.9073 236.05 11.506C235.976 11.0953 235.854 10.7267 235.686 10.4C235.518 10.064 235.299 9.798 235.028 9.602C234.767 9.406 234.45 9.308 234.076 9.308C233.591 9.308 233.194 9.448 232.886 9.728C232.578 10.008 232.35 10.372 232.2 10.82C232.06 11.268 231.99 11.7487 231.99 12.262C231.99 12.8407 232.07 13.3913 232.228 13.914C232.387 14.4273 232.63 14.8473 232.956 15.174C233.283 15.5007 233.694 15.664 234.188 15.664ZM238.794 15.58C239.083 15.58 239.284 15.51 239.396 15.37C239.508 15.2207 239.573 15.02 239.592 14.768C239.61 14.5067 239.62 14.208 239.62 13.872V10.68C239.62 10.5307 239.62 10.3813 239.62 10.232C239.629 10.0827 239.648 9.92867 239.676 9.77C239.508 9.77933 239.34 9.78867 239.172 9.798C239.013 9.798 238.85 9.80267 238.682 9.812V9.238H239.116C239.517 9.238 239.792 9.20067 239.942 9.126C240.1 9.042 240.231 8.95333 240.334 8.86H240.74C240.758 9.00933 240.772 9.196 240.782 9.42C240.791 9.63467 240.8 9.91 240.81 10.246C240.95 10.0127 241.141 9.784 241.384 9.56C241.626 9.336 241.897 9.14933 242.196 9C242.504 8.85067 242.826 8.776 243.162 8.776C243.423 8.776 243.652 8.846 243.848 8.986C244.044 9.126 244.142 9.35 244.142 9.658C244.142 9.73267 244.118 9.826 244.072 9.938C244.025 10.0407 243.95 10.134 243.848 10.218C243.745 10.2927 243.61 10.33 243.442 10.33C243.236 10.3207 243.073 10.2413 242.952 10.092C242.83 9.93333 242.784 9.75133 242.812 9.546C242.578 9.53667 242.336 9.59733 242.084 9.728C241.841 9.85867 241.612 10.0407 241.398 10.274C241.183 10.498 240.992 10.764 240.824 11.072L240.838 14.516C240.838 14.7027 240.833 14.8707 240.824 15.02C240.824 15.16 240.81 15.3093 240.782 15.468C240.931 15.4587 241.076 15.454 241.216 15.454C241.365 15.4447 241.514 15.4353 241.664 15.426V16H238.794V15.58ZM247.751 16.224C247.181 16.224 246.668 16.084 246.211 15.804C245.753 15.5147 245.389 15.104 245.119 14.572C244.857 14.04 244.727 13.4147 244.727 12.696C244.727 11.9307 244.881 11.254 245.189 10.666C245.497 10.078 245.921 9.616 246.463 9.28C247.013 8.944 247.634 8.776 248.325 8.776C248.633 8.776 248.936 8.818 249.235 8.902C249.543 8.97667 249.785 9.06533 249.963 9.168V7.25C249.963 7.10067 249.963 6.96067 249.963 6.83C249.972 6.69 249.986 6.52667 250.005 6.34C249.837 6.34933 249.669 6.35867 249.501 6.368C249.342 6.37733 249.179 6.38667 249.011 6.396V5.808C249.421 5.808 249.739 5.78933 249.963 5.752C250.187 5.71467 250.355 5.668 250.467 5.612C250.588 5.556 250.681 5.49533 250.747 5.43H251.153V14.516C251.153 14.6653 251.148 14.8147 251.139 14.964C251.129 15.1133 251.115 15.2813 251.097 15.468C251.265 15.4587 251.428 15.4493 251.587 15.44C251.755 15.4307 251.923 15.4213 252.091 15.412V16H250.089C250.061 15.86 250.037 15.734 250.019 15.622C250.009 15.5007 250 15.384 249.991 15.272C249.729 15.5613 249.407 15.7947 249.025 15.972C248.642 16.14 248.217 16.224 247.751 16.224ZM248.255 15.538C248.563 15.538 248.871 15.4493 249.179 15.272C249.496 15.0947 249.757 14.8753 249.963 14.614C249.953 14.502 249.949 14.3853 249.949 14.264C249.949 14.1333 249.949 13.9933 249.949 13.844L249.963 9.812C249.739 9.644 249.491 9.52267 249.221 9.448C248.959 9.364 248.689 9.322 248.409 9.322C247.942 9.322 247.536 9.45733 247.191 9.728C246.845 9.99867 246.584 10.3767 246.407 10.862C246.229 11.3473 246.15 11.9167 246.169 12.57C246.187 13.1393 246.276 13.648 246.435 14.096C246.603 14.544 246.836 14.8987 247.135 15.16C247.443 15.412 247.816 15.538 248.255 15.538ZM256.51 16.224C255.866 16.224 255.283 16.0747 254.76 15.776C254.247 15.468 253.841 15.0387 253.542 14.488C253.243 13.928 253.094 13.27 253.094 12.514C253.094 11.8607 253.239 11.2493 253.528 10.68C253.827 10.1107 254.242 9.65333 254.774 9.308C255.306 8.95333 255.922 8.776 256.622 8.776C257.014 8.776 257.378 8.84133 257.714 8.972C258.059 9.09333 258.363 9.28467 258.624 9.546C258.885 9.798 259.091 10.12 259.24 10.512C259.389 10.8947 259.464 11.3473 259.464 11.87L254.536 11.954C254.536 12.6633 254.611 13.2887 254.76 13.83C254.919 14.362 255.171 14.7773 255.516 15.076C255.861 15.3653 256.305 15.51 256.846 15.51C257.135 15.51 257.429 15.4587 257.728 15.356C258.036 15.2533 258.321 15.1133 258.582 14.936C258.843 14.7587 259.053 14.5627 259.212 14.348L259.548 14.628C259.296 15.02 258.993 15.3327 258.638 15.566C258.283 15.7993 257.919 15.9673 257.546 16.07C257.173 16.1727 256.827 16.224 256.51 16.224ZM254.578 11.366H258.148C258.148 11.03 258.097 10.708 257.994 10.4C257.901 10.0827 257.742 9.826 257.518 9.63C257.294 9.42467 257 9.322 256.636 9.322C256.095 9.322 255.642 9.48533 255.278 9.812C254.923 10.1293 254.69 10.6473 254.578 11.366ZM260.71 15.58C260.999 15.58 261.2 15.51 261.312 15.37C261.424 15.2207 261.489 15.02 261.508 14.768C261.526 14.5067 261.536 14.208 261.536 13.872V10.68C261.536 10.5307 261.536 10.3813 261.536 10.232C261.545 10.0827 261.564 9.92867 261.592 9.77C261.424 9.77933 261.256 9.78867 261.088 9.798C260.929 9.798 260.766 9.80267 260.598 9.812V9.238H261.032C261.433 9.238 261.708 9.20067 261.858 9.126C262.016 9.042 262.147 8.95333 262.25 8.86H262.656C262.674 9.00933 262.688 9.196 262.698 9.42C262.707 9.63467 262.716 9.91 262.726 10.246C262.866 10.0127 263.057 9.784 263.3 9.56C263.542 9.336 263.813 9.14933 264.112 9C264.42 8.85067 264.742 8.776 265.078 8.776C265.339 8.776 265.568 8.846 265.764 8.986C265.96 9.126 266.058 9.35 266.058 9.658C266.058 9.73267 266.034 9.826 265.988 9.938C265.941 10.0407 265.866 10.134 265.764 10.218C265.661 10.2927 265.526 10.33 265.358 10.33C265.152 10.3207 264.989 10.2413 264.868 10.092C264.746 9.93333 264.7 9.75133 264.728 9.546C264.494 9.53667 264.252 9.59733 264 9.728C263.757 9.85867 263.528 10.0407 263.314 10.274C263.099 10.498 262.908 10.764 262.74 11.072L262.754 14.516C262.754 14.7027 262.749 14.8707 262.74 15.02C262.74 15.16 262.726 15.3093 262.698 15.468C262.847 15.4587 262.992 15.454 263.132 15.454C263.281 15.4447 263.43 15.4353 263.58 15.426V16H260.71V15.58Z" fill="#0095F9"/>
<path d="M4.56565 18.3334C4.23356 18.3334 3.94298 18.2084 3.69391 17.9584C3.44485 17.7084 3.32031 17.4167 3.32031 17.0834V6.25008C3.32031 5.91675 3.44485 5.62508 3.69391 5.37508C3.94298 5.12508 4.23356 5.00008 4.56565 5.00008H6.84876V4.79175C6.84876 3.91675 7.14972 3.17716 7.75163 2.573C8.35354 1.96883 9.09037 1.66675 9.9621 1.66675C10.8338 1.66675 11.5707 1.96883 12.1726 2.573C12.7745 3.17716 13.0754 3.91675 13.0754 4.79175V5.00008H15.3586C15.6906 5.00008 15.9812 5.12508 16.2303 5.37508C16.4794 5.62508 16.6039 5.91675 16.6039 6.25008V17.0834C16.6039 17.4167 16.4794 17.7084 16.2303 17.9584C15.9812 18.2084 15.6906 18.3334 15.3586 18.3334H4.56565ZM4.56565 17.0834H15.3586V6.25008H13.0754V8.12508C13.0754 8.30216 13.0154 8.4506 12.8954 8.57039C12.7753 8.69019 12.6266 8.75008 12.4491 8.75008C12.2717 8.75008 12.1241 8.69019 12.0065 8.57039C11.8889 8.4506 11.8301 8.30216 11.8301 8.12508V6.25008H8.0941V8.12508C8.0941 8.30216 8.03408 8.4506 7.91405 8.57039C7.79399 8.69019 7.64525 8.75008 7.4678 8.75008C7.29034 8.75008 7.1428 8.69019 7.02519 8.57039C6.90757 8.4506 6.84876 8.30216 6.84876 8.12508V6.25008H4.56565V17.0834ZM8.0941 5.00008H11.8301V4.79175C11.8301 4.26397 11.6502 3.81953 11.2905 3.45841C10.9307 3.0973 10.4879 2.91675 9.9621 2.91675C9.43629 2.91675 8.99351 3.0973 8.63375 3.45841C8.27398 3.81953 8.0941 4.26397 8.0941 4.79175V5.00008Z" fill="#0095F9"/>
</svg>
