<svg width="16" height="16" viewBox="0 0 16 16" fill="none" xmlns="http://www.w3.org/2000/svg">
<path d="M4.57143 0C5.04643 0 5.42857 0.334375 5.42857 0.75V2H10.5714V0.75C10.5714 0.334375 10.9536 0 11.4286 0C11.9036 0 12.2857 0.334375 12.2857 0.75V2H13.7143C14.975 2 16 2.89687 16 4V4.5V6V14C16 15.1031 14.975 16 13.7143 16H2.28571C1.025 16 0 15.1031 0 14V6V4.5V4C0 2.89687 1.025 2 2.28571 2H3.71429V0.75C3.71429 0.334375 4.09643 0 4.57143 0ZM14.2857 6H1.71429V14C1.71429 14.275 1.97143 14.5 2.28571 14.5H13.7143C14.0286 14.5 14.2857 14.275 14.2857 14V6ZM11.75 9.28125L7.75 12.7812C7.41429 13.075 6.87143 13.075 6.53929 12.7812L4.25357 10.7812C3.91786 10.4875 3.91786 10.0125 4.25357 9.72188C4.58929 9.43125 5.13214 9.42813 5.46429 9.72188L7.14286 11.1906L10.5357 8.22188C10.8714 7.92813 11.4143 7.92813 11.7464 8.22188C12.0786 8.51562 12.0821 8.99063 11.7464 9.28125H11.75Z" fill="#0095F9"/>
</svg>
